
<svg width="800px" height="100px" xmlns="http://www.w3.org/2000/svg" viewBox="-230.1668701171875 -38.21125183105468 960.333740234375 226.42250366210936" style="background: rgba(0, 0, 0, 0);" preserveAspectRatio="xMidYMid"><defs><filter id="editing-golden" x="-100%" y="-100%" width="300%" height="300%"><feFlood flood-color="#806527" result="flood"></feFlood><feFlood flood-color="#fff694" result="flood-light"></feFlood><feComposite operator="in" in="flood" in2="SourceAlpha" result="flood-comp"></feComposite><feGaussianBlur in="flood-comp" stdDeviation="3" result="blur"></feGaussianBlur><feOffset in="blur" dy="3" result="offset-blur"></feOffset><feComponentTransfer in="offset-blur" result="comp-blur"><feFuncA type="linear" slope="0.7" intercept="-0.1"></feFuncA></feComponentTransfer><feSpecularLighting surfaceScale="200" specularConstant="20" specularExponent="1" lighting-color="#fff" in="blur" result="specular"><fePointLight x="-250" y="-250" z="3500"></fePointLight></feSpecularLighting><feComponentTransfer in="specular" result="inspecular"><feFuncA type="linear" slope="-1" intercept="1"></feFuncA></feComponentTransfer><feComposite operator="in" in="flood-light" in2="inspecular" result="inspecular2"></feComposite><feComposite operator="in" in="inspecular2" in2="SourceAlpha" result="light"></feComposite><feMerge><feMergeNode in="comp-blur"></feMergeNode><feMergeNode in="SourceGraphic"></feMergeNode><feMergeNode in="light"></feMergeNode></feMerge></filter></defs><g filter="url(#editing-golden)"><g transform="translate(-90.97283792495728, 123.75)"><path d="M59.28 2.60L59.28 2.60L59.28 2.60Q42.64 2.60 41.08-21.06L41.08-21.06L18.72-21.06L18.72-21.06Q16.12-15.08 14.30-9.88L14.30-9.88L10.92 0L-7.28 0L33.67-85.80L61.62-85.80L67.08-22.62L67.08-22.62Q68.38-8.97 73.58-4.94L73.58-4.94L73.58-4.94Q69.81 2.60 59.28 2.60ZM29.90-47.06L22.75-30.55L40.69-30.55L39.13-63.96L39.13-67.47L29.90-47.06ZM106.14 1.30L106.14 1.30L106.14 1.30Q99.97 0 96.78-0.58L96.78-0.58L96.78-0.58Q93.60-1.17 89.89-1.17L89.89-1.17L89.89-1.17Q86.19-1.17 82.55 0.13L82.55 0.13L82.55 0.13Q80.60-1.04 79.36-3.38L79.36-3.38L79.36-3.38Q78.13-5.72 78.13-9.36L78.13-9.36L78.13-9.36Q78.13-17.03 85.93-22.88L85.93-22.88L118.95-46.67L118.95-46.67Q109.72-49.27 101.33-49.27L101.33-49.27L101.33-49.27Q92.95-49.27 89.96-43.55L89.96-43.55L89.96-43.55Q85.54-48.75 85.54-56.94L85.54-56.94L85.54-56.94Q85.54-62.40 89.50-65.98L89.50-65.98L89.50-65.98Q93.47-69.55 101.79-69.55L101.79-69.55L101.79-69.55Q106.47-69.55 110.69-68.97L110.69-68.97L110.69-68.97Q114.92-68.38 118.69-67.86L118.69-67.86L125.71-66.82L125.71-66.82Q129.09-66.30 132.53-66.30L132.53-66.30L132.53-66.30Q135.98-66.30 138.58-67.73L138.58-67.73L138.58-67.73Q141.96-64.61 141.96-60.32L141.96-60.32L141.96-60.32Q141.96-53.56 133.64-46.54L133.64-46.54L100.75-21.97L100.75-21.97Q110.89-18.98 116.09-18.98L116.09-18.98L116.09-18.98Q127.01-18.98 131.69-24.18L131.69-24.18L131.69-24.18Q135.33-20.02 135.33-12.80L135.33-12.80L135.33-12.80Q135.33-5.59 130.65-1.50L130.65-1.50L130.65-1.50Q125.97 2.60 117.52 2.60L117.52 2.60L117.52 2.60Q112.32 2.60 106.14 1.30ZM177.84-7.15L177.84-7.15L177.84-7.15Q173.81 2.60 160.94 2.60L160.94 2.60L160.94 2.60Q154.31 2.60 150.15-1.95L150.15-1.95L150.15-1.95Q146.64-5.98 146.64-10.01L146.64-10.01L146.64-10.01Q146.64-20.54 151.45-41.08L151.45-41.08L156.26-66.30L182.65-68.90L174.72-27.82L174.72-27.82Q172.51-18.20 172.51-14.82L172.51-14.82L172.51-14.82Q172.51-7.41 177.84-7.15ZM158.60-84.37L158.60-84.37L158.60-84.37Q158.60-89.44 162.83-92.17L162.83-92.17L162.83-92.17Q167.05-94.90 173.16-94.90L173.16-94.90L173.16-94.90Q179.27-94.90 182.98-92.17L182.98-92.17L182.98-92.17Q186.68-89.44 186.68-84.37L186.68-84.37L186.68-84.37Q186.68-79.30 182.59-76.70L182.59-76.70L182.59-76.70Q178.49-74.10 172.38-74.10L172.38-74.10L172.38-74.10Q166.27-74.10 162.44-76.70L162.44-76.70L162.44-76.70Q158.60-79.30 158.60-84.37ZM217.23 2.60L217.23 2.60L217.23 2.60Q188.63 2.60 188.63-24.31L188.63-24.31L188.63-24.31Q188.63-43.42 199.16-55.77L199.16-55.77L199.16-55.77Q210.34-68.90 229.71-68.90L229.71-68.90L229.71-68.90Q243.75-68.90 250.90-62.40L250.90-62.40L250.90-62.40Q258.05-55.90 258.05-42.25L258.05-42.25L258.05-42.25Q258.05-21.45 246.87-9.36L246.87-9.36L246.87-9.36Q235.95 2.60 217.23 2.60ZM220.61-53.95L220.61-53.95L220.61-53.95Q219.05-50.44 217.81-45.18L217.81-45.18L217.81-45.18Q216.58-39.91 215.02-31.59L215.02-31.59L215.02-31.59Q213.46-23.27 213.46-13L213.46-13L213.46-13Q213.46-9.62 214.56-7.41L214.56-7.41L214.56-7.41Q215.67-5.20 218.66-5.20L218.66-5.20L218.66-5.20Q221.65-5.20 223.54-6.63L223.54-6.63L223.54-6.63Q225.42-8.06 226.85-11.44L226.85-11.44L226.85-11.44Q229.45-17.42 231.53-28.54L231.53-28.54L231.53-28.54Q233.61-39.65 233.81-44.46L233.81-44.46L233.81-44.46Q234-49.27 234-52.84L234-52.84L234-52.84Q234-56.42 232.96-58.76L232.96-58.76L232.96-58.76Q231.92-61.10 229.00-61.10L229.00-61.10L229.00-61.10Q226.07-61.10 224.12-59.28L224.12-59.28L224.12-59.28Q222.17-57.46 220.61-53.95ZM320.84 2.60L320.84 2.60L320.84 2.60Q292.24 2.60 292.24-24.31L292.24-24.31L292.24-24.31Q292.24-43.42 302.77-55.77L302.77-55.77L302.77-55.77Q313.95-68.90 333.32-68.90L333.32-68.90L333.32-68.90Q347.36-68.90 354.51-62.40L354.51-62.40L354.51-62.40Q361.66-55.90 361.66-42.25L361.66-42.25L361.66-42.25Q361.66-21.45 350.48-9.36L350.48-9.36L350.48-9.36Q339.56 2.60 320.84 2.60ZM324.22-53.95L324.22-53.95L324.22-53.95Q322.66-50.44 321.42-45.18L321.42-45.18L321.42-45.18Q320.19-39.91 318.63-31.59L318.63-31.59L318.63-31.59Q317.07-23.27 317.07-13L317.07-13L317.07-13Q317.07-9.62 318.17-7.41L318.17-7.41L318.17-7.41Q319.28-5.20 322.27-5.20L322.27-5.20L322.27-5.20Q325.26-5.20 327.14-6.63L327.14-6.63L327.14-6.63Q329.03-8.06 330.46-11.44L330.46-11.44L330.46-11.44Q333.06-17.42 335.14-28.54L335.14-28.54L335.14-28.54Q337.22-39.65 337.41-44.46L337.41-44.46L337.41-44.46Q337.61-49.27 337.61-52.84L337.61-52.84L337.61-52.84Q337.61-56.42 336.57-58.76L336.57-58.76L336.57-58.76Q335.53-61.10 332.60-61.10L332.60-61.10L332.60-61.10Q329.68-61.10 327.73-59.28L327.73-59.28L327.73-59.28Q325.78-57.46 324.22-53.95ZM424.32 2.60L424.32 2.60L424.32 2.60Q408.59 2.60 408.59-9.62L408.59-9.62L408.59-9.62Q408.72-13 409.76-18.72L409.76-18.72L412.10-30.68L412.10-30.68Q415.61-47.58 415.61-51.35L415.61-51.35L415.61-51.35Q415.61-58.89 411.19-58.89L411.19-58.89L411.19-58.89Q403.78-58.89 399.88-39.52L399.88-39.52L392.21 0L366.08 2.60L379.60-66.43L400.92-68.90L398.84-56.16L398.84-56.16Q404.95-68.90 423.67-68.90L423.67-68.90L423.67-68.90Q432.77-68.90 436.60-65.06L436.60-65.06L436.60-65.06Q440.44-61.23 440.44-52.65L440.44-52.65L440.44-52.65Q440.44-44.59 436.28-25.74L436.28-25.74L436.28-25.74Q434.33-17.29 434.33-14.11L434.33-14.11L434.33-14.11Q434.33-10.92 436.08-9.10L436.08-9.10L436.08-9.10Q437.84-7.28 440.44-7.02L440.44-7.02L440.44-7.02Q439.14-2.60 434.65 0L434.65 0L434.65 0Q430.17 2.60 424.32 2.60ZM481.91-7.15L481.91-7.15L481.91-7.15Q477.88 2.60 465.01 2.60L465.01 2.60L465.01 2.60Q458.51 2.60 454.35-1.95L454.35-1.95L454.35-1.95Q450.97-5.72 450.97-10.01L450.97-10.01L450.97-10.01Q450.97-19.76 455.52-41.08L455.52-41.08L465.01-91L491.40-93.60L478.79-27.82L478.79-27.82Q476.58-18.20 476.58-14.82L476.58-14.82L476.58-14.82Q476.58-7.41 481.91-7.15ZM524.16-7.15L524.16-7.15L524.16-7.15Q520.13 2.60 507.26 2.60L507.26 2.60L507.26 2.60Q500.63 2.60 496.47-1.95L496.47-1.95L496.47-1.95Q492.96-5.98 492.96-10.01L492.96-10.01L492.96-10.01Q492.96-20.54 497.77-41.08L497.77-41.08L502.58-66.30L528.97-68.90L521.04-27.82L521.04-27.82Q518.83-18.20 518.83-14.82L518.83-14.82L518.83-14.82Q518.83-7.41 524.16-7.15ZM504.92-84.37L504.92-84.37L504.92-84.37Q504.92-89.44 509.14-92.17L509.14-92.17L509.14-92.17Q513.37-94.90 519.48-94.90L519.48-94.90L519.48-94.90Q525.59-94.90 529.29-92.17L529.29-92.17L529.29-92.17Q533-89.44 533-84.37L533-84.37L533-84.37Q533-79.30 528.90-76.70L528.90-76.70L528.90-76.70Q524.81-74.10 518.70-74.10L518.70-74.10L518.70-74.10Q512.59-74.10 508.75-76.70L508.75-76.70L508.75-76.70Q504.92-79.30 504.92-84.37ZM590.20 2.60L590.20 2.60L590.20 2.60Q574.47 2.60 574.47-9.62L574.47-9.62L574.47-9.62Q574.60-13 575.64-18.72L575.64-18.72L577.98-30.68L577.98-30.68Q581.49-47.58 581.49-51.35L581.49-51.35L581.49-51.35Q581.49-58.89 577.07-58.89L577.07-58.89L577.07-58.89Q569.66-58.89 565.76-39.52L565.76-39.52L558.09 0L531.96 2.60L545.48-66.43L566.80-68.90L564.72-56.16L564.72-56.16Q570.83-68.90 589.55-68.90L589.55-68.90L589.55-68.90Q598.65-68.90 602.49-65.06L602.49-65.06L602.49-65.06Q606.32-61.23 606.32-52.65L606.32-52.65L606.32-52.65Q606.32-44.59 602.16-25.74L602.16-25.74L602.16-25.74Q600.21-17.29 600.21-14.11L600.21-14.11L600.21-14.11Q600.21-10.92 601.97-9.10L601.97-9.10L601.97-9.10Q603.72-7.28 606.32-7.02L606.32-7.02L606.32-7.02Q605.02-2.60 600.53 0L600.53 0L600.53 0Q596.05 2.60 590.20 2.60ZM669.37-21.97L669.37-21.97L669.37-21.97Q672.62-19.76 672.62-14.88L672.62-14.88L672.62-14.88Q672.62-10.01 670.15-6.89L670.15-6.89L670.15-6.89Q667.68-3.77 663.65-1.69L663.65-1.69L663.65-1.69Q655.33 2.60 646.36 2.60L646.36 2.60L646.36 2.60Q637.39 2.60 632.13 0.65L632.13 0.65L632.13 0.65Q626.86-1.30 623.35-4.94L623.35-4.94L623.35-4.94Q616.46-11.83 616.46-24.44L616.46-24.44L616.46-24.44Q616.46-44.07 627.12-56.03L627.12-56.03L627.12-56.03Q638.56-68.90 658.45-68.90L658.45-68.90L658.45-68.90Q670.80-68.90 676.91-63.70L676.91-63.70L676.91-63.70Q681.46-59.80 681.46-53.43L681.46-53.43L681.46-53.43Q681.46-30.55 641.94-30.55L641.94-30.55L641.94-30.55Q641.42-27.17 641.42-24.31L641.42-24.31L641.42-24.31Q641.42-18.33 644.09-16.05L644.09-16.05L644.09-16.05Q646.75-13.78 651.69-13.78L651.69-13.78L651.69-13.78Q656.63-13.78 661.89-16.05L661.89-16.05L661.89-16.05Q667.16-18.33 669.37-21.97ZM642.85-36.14L642.85-36.14L642.85-36.14Q652.08-36.14 657.41-41.86L657.41-41.86L657.41-41.86Q662.74-47.32 662.74-56.03L662.74-56.03L662.74-56.03Q662.74-59.02 661.63-60.65L661.63-60.65L661.63-60.65Q660.53-62.27 658.32-62.27L658.32-62.27L658.32-62.27Q656.11-62.27 654.23-61.43L654.23-61.43L654.23-61.43Q652.34-60.58 650.39-57.72L650.39-57.72L650.39-57.72Q645.58-51.22 642.85-36.14Z" fill="#f7c61d"></path></g></g><style>text {
  font-size:100px;
  font-family: Arial Black;
  dominant-baseline: central;
  text-anchor: middle;
}</style></svg>